<?xml version="1.0" encoding="utf-8"?>
<!-- Generator: Adobe Illustrator 25.3.1, SVG Export Plug-In . SVG Version: 6.00 Build 0)  -->
<svg version="1.1" id="Layer_2" xmlns="http://www.w3.org/2000/svg" xmlns:xlink="http://www.w3.org/1999/xlink" x="0px" y="0px"
	 viewBox="0 0 100 100" enable-background="new 0 0 100 100" xml:space="preserve">
<path fill="#FFFFFF" d="M79.4,9.5L50,0L20.9,9.5l-0.3,0.1l-18.2,25v30.9l18.2,25L50,100l29.4-9.5l18.2-25V34.5L79.4,9.5z M49.3,49.8
	l-27.9,9.1l10.6-32.8L49.3,49.8z M32.8,25.5h34.5L50,49.3L32.8,25.5z M67.9,26.1l10.6,32.8l-27.9-9.1L67.9,26.1z M34,23.8l16-9.2
	l16,9.2H34z M20.1,57.1L16.3,39L30,26.7L20.1,57.1z M49.6,50.6l0,29.3L21.7,59.7L49.6,50.6z M50.4,50.6l27.9,9.1L50.4,79.9
	L50.4,50.6z M70,26.7L83.7,39l-3.8,18.1L70,26.7z M69.4,25l-0.1-0.2L78.7,12l4.8,25.7L69.4,25z M68,23.8h-0.2l-16.4-9.5l25.9-3.4
	L68,23.8z M32.2,23.8H32l-9.3-12.8l25.9,3.4L32.2,23.8z M30.6,24.8L30.6,25L16.5,37.7L21.3,12L30.6,24.8z M19.6,58.8L19.5,59
	L4.4,63.9l11.2-23.6L19.6,58.8z M47.5,80.6l-18.4-1.9l-7.5-16.9L47.5,80.6z M49,81.7l0.2,0.1l0,15.9l-19-18L49,81.7z M50.9,81.8
	l0.2-0.1l18.9-2l-19,18L50.9,81.8z M52.5,80.6l25.9-18.8l-7.5,16.9L52.5,80.6z M80.5,59l-0.1-0.2l3.9-18.5l11.2,23.6L80.5,59z
	 M84.8,39.1l11-3.6v26.7L84.8,39.1z M84.6,38.3l-4.7-25.2l15.7,21.6L84.6,38.3z M50.4,13.5l0-11.5l25.4,8.2L50.4,13.5z M49.6,13.5
	l-25.4-3.3L49.6,2L49.6,13.5z M15.4,38.3l-11-3.6l15.7-21.6L15.4,38.3z M15.2,39.1l-11,23.1V35.6L15.2,39.1z M20.1,60.7l0.2,0.1
	l7.7,17.3L5,65.6L20.1,60.7z M47.5,97.3l-25.4-8.3l6.8-9.3L47.5,97.3z M71.1,79.8l6.8,9.3l-25.4,8.2L71.1,79.8z M79.8,60.8l0.2-0.1
	L95,65.6l-23,12.5L79.8,60.8z M5.7,67l22.5,12.3l-6.8,9.3L5.7,67z M78.6,88.6l-6.8-9.3L94.3,67L78.6,88.6z"/>
</svg>
