<?xml version="1.0" encoding="utf-8"?>
<!-- Generator: Adobe Illustrator 25.3.1, SVG Export Plug-In . SVG Version: 6.00 Build 0)  -->
<svg version="1.1" id="Layer_2" xmlns="http://www.w3.org/2000/svg" xmlns:xlink="http://www.w3.org/1999/xlink" x="0px" y="0px"
	 viewBox="0 0 97.6 97.6" enable-background="new 0 0 97.6 97.6" xml:space="preserve">
<path fill="#FFFFFF" d="M48.8,0C21.8,0,0,21.8,0,48.8s21.8,48.8,48.8,48.8s48.8-21.8,48.8-48.8S75.7,0,48.8,0z M48.8,93.8
	c-24.9,0-45-20.1-45-45s20.1-45,45-45c24.9,0,45,20.1,45,45S73.6,93.8,48.8,93.8z"/>
<path fill="#FFFFFF" d="M48.8,6.8c-23.2,0-42,18.8-42,42s18.8,42,42,42c23.2,0,42-18.8,42-42S72,6.8,48.8,6.8z M22.3,31.3h36.5
	l-4.5,7.8h-32V31.3z M75.6,39.4h-6.2l-22,38.5l-17-29.4h-8v-6.6h13.1l11,19.8l1.5-2.6l-9.1-17.2h7.8l5.5,10l11.6-20.5h14.2
	L75.6,39.4z"/>
</svg>
