<?xml version="1.0" encoding="utf-8"?>
<!-- Generator: Adobe Illustrator 21.0.0, SVG Export Plug-In . SVG Version: 6.00 Build 0)  -->
<svg version="1.1" id="图层_1" xmlns="http://www.w3.org/2000/svg" xmlns:xlink="http://www.w3.org/1999/xlink" x="0px" y="0px"
	 viewBox="0 0 1920 1080" style="enable-background:new 0 0 1920 1080;" xml:space="preserve">
<style type="text/css">
	.st0{fill:#fff;}
</style>
<g>
	<path class="st0" d="M510.5,601.7L510.5,601.7v67.7h67.7l0,0C578.2,632,547.9,601.7,510.5,601.7z"/>
	<path class="st0" d="M771.3,476.3L771.3,476.3v-67.7h-67.7l0,0C703.6,446,734,476.3,771.3,476.3z"/>
	<path class="st0" d="M528.2,460c18.9,1.8,36.5,8.2,53.4,16.5c21.3,10.4,40.5,24.1,59,38.7c23.6,18.7,48.4,35.5,76.1,47.7
		c17.5,7.7,35.5,13.3,54.7,13.5v-51.9c-18.8-1.4-36.3-7-53.2-15c-21.4-10.1-40.2-23.9-58.6-38.7c-24.4-19.6-50.1-37-79-49.4
		c-19.3-8.2-39.2-13.9-60.5-12.1c-3.2,0.3-6.4,0.7-9.5,1.4v48.8C516.3,459.2,522.2,459.4,528.2,460z"/>
	<path class="st0" d="M561.3,569.5c19.3,9.4,37,21.4,53.8,34.8c25.1,19.9,51.1,38.4,80.7,51.3c20.2,8.8,41,15.1,63.4,13.2
		c4.2-0.4,8.2-1,12.2-2v-49.8c-16.6,2.1-33-0.2-49.1-5.1c-25.4-7.6-47.8-20.8-68.6-36.8c-18.8-14.5-37.2-29.4-57.5-41.6
		c-26.4-15.8-53.7-29.5-85.2-31.4c-0.1,0-0.2,0-0.4,0v51.1c0,0,0.1,0,0.1,0C528.5,555.5,545.2,561.6,561.3,569.5z"/>
</g>
<g>
	<path class="st0" d="M863.4,540.2v-87.6h17.2l35.8,58.5v-58.5h16.4v87.6h-17.7l-35.3-57.1v57.1H863.4z"/>
	<path class="st0" d="M958.9,540.2v-87.6h64.9v14.8h-47.3v19.4h44v14.8h-44v23.8h48.9v14.8H958.9z"/>
	<path class="st0" d="M1060.3,540.2l-20.9-87.6h18.1l13.2,60.2l16-60.2h21l15.4,61.2l13.4-61.2h17.8l-21.3,87.6h-18.8l-17.4-65.5
		l-17.4,65.5H1060.3z"/>
	<path class="st0" d="M1242.9,540.2h-19.2l-7.6-19.9h-35l-7.2,19.9H1155l34.1-87.6h18.7L1242.9,540.2z M1210.3,505.6l-12.1-32.5
		l-11.8,32.5H1210.3z"/>
	<path class="st0" d="M1272.9,540.2l-31.3-87.6h19.2l22.2,64.8l21.4-64.8h18.8l-31.4,87.6H1272.9z"/>
	<path class="st0" d="M1339.5,540.2v-87.6h64.9v14.8h-47.3v19.4h44v14.8h-44v23.8h48.9v14.8H1339.5z"/>
	<path class="st0" d="M904.3,615l8.1,2c-1.7,6.6-4.7,11.7-9.1,15.1c-4.4,3.5-9.8,5.2-16.1,5.2c-6.6,0-11.9-1.3-16-4
		c-4.1-2.7-7.2-6.5-9.4-11.6c-2.1-5.1-3.2-10.5-3.2-16.3c0-6.3,1.2-11.9,3.6-16.6c2.4-4.7,5.9-8.3,10.3-10.8
		c4.5-2.5,9.4-3.7,14.8-3.7c6.1,0,11.2,1.6,15.4,4.7c4.2,3.1,7.1,7.5,8.7,13.1l-7.9,1.9c-1.4-4.4-3.5-7.7-6.1-9.7
		c-2.7-2-6.1-3-10.1-3c-4.7,0-8.6,1.1-11.7,3.4c-3.1,2.2-5.4,5.3-6.6,9c-1.3,3.8-1.9,7.7-1.9,11.7c0,5.2,0.8,9.7,2.3,13.6
		c1.5,3.9,3.9,6.8,7,8.7c3.2,1.9,6.6,2.9,10.3,2.9c4.5,0,8.3-1.3,11.5-3.9C901.1,624,903.2,620.1,904.3,615z"/>
	<path class="st0" d="M920.7,636.3l23.4-60.9h8.7l24.9,60.9h-9.2l-7.1-18.5H936l-6.7,18.5H920.7z M938.3,611.3H959l-6.4-16.9
		c-1.9-5.1-3.4-9.3-4.3-12.6c-0.8,3.9-1.9,7.8-3.3,11.6L938.3,611.3z"/>
	<path class="st0" d="M989.3,636.3v-60.9h23c4,0,7.1,0.2,9.3,0.6c3,0.5,5.5,1.4,7.5,2.8c2,1.4,3.6,3.4,4.9,5.9
		c1.2,2.5,1.8,5.3,1.8,8.3c0,5.2-1.6,9.6-4.9,13.2c-3.3,3.6-9.3,5.4-17.9,5.4h-15.6v24.8H989.3z M997.4,604.4h15.7
		c5.2,0,8.9-1,11.1-2.9c2.2-1.9,3.3-4.7,3.3-8.2c0-2.5-0.6-4.7-1.9-6.5c-1.3-1.8-3-3-5.1-3.6c-1.4-0.4-3.9-0.5-7.5-0.5h-15.6V604.4z
		"/>
	<path class="st0" d="M1052.5,636.3v-60.9h8.1v60.9H1052.5z"/>
	<path class="st0" d="M1095.4,636.3v-53.7h-20.1v-7.2h48.3v7.2h-20.2v53.7H1095.4z"/>
	<path class="st0" d="M1124,636.3l23.4-60.9h8.7l24.9,60.9h-9.2l-7.1-18.5h-25.5l-6.7,18.5H1124z M1141.6,611.3h20.7l-6.4-16.9
		c-1.9-5.1-3.4-9.3-4.3-12.6c-0.8,3.9-1.9,7.8-3.3,11.6L1141.6,611.3z"/>
	<path class="st0" d="M1192.2,636.3v-60.9h8.1v53.7h30v7.2H1192.2z"/>
</g>
</svg>
